<?xml version="1.0" encoding="UTF-8" standalone="no"?>
<!-- Created with Inkscape (http://www.inkscape.org/) -->

<svg
   version="1.1"
   id="svg2"
   width="3781.4529"
   height="1889.76"
   viewBox="0 0 3781.4529 1889.76"
   sodipodi:docname="LOGO BELLO ORIGINAL.svg"
   inkscape:version="1.4.2 (ebf0e940, 2025-05-08)"
   inkscape:export-filename="../../LOGO BELLO ORIGINAL.png"
   inkscape:export-xdpi="6.3467669"
   inkscape:export-ydpi="6.3467669"
   xmlns:inkscape="http://www.inkscape.org/namespaces/inkscape"
   xmlns:sodipodi="http://sodipodi.sourceforge.net/DTD/sodipodi-0.dtd"
   xmlns="http://www.w3.org/2000/svg"
   xmlns:svg="http://www.w3.org/2000/svg">
  <defs
     id="defs6">
    <clipPath
       clipPathUnits="userSpaceOnUse"
       id="clipPath22">
      <path
         d="M 0,1417.323 H 4032.343 V 0 H 0 Z"
         id="path20" />
    </clipPath>
    <clipPath
       clipPathUnits="userSpaceOnUse"
       id="clipPath94">
      <path
         d="M 278.957,1096.92 H 2512.72 V 990.888 H 278.957 Z"
         id="path92" />
    </clipPath>
    <clipPath
       clipPathUnits="userSpaceOnUse"
       id="clipPath146">
      <path
         d="M 645.198,430.214 H 2209.85 V 343.732 H 645.198 Z"
         id="path144" />
    </clipPath>
    <clipPath
       clipPathUnits="userSpaceOnUse"
       id="clipPath286">
      <path
         d="m 1752,459.584 h 20.6 V 440.495 H 1752 Z"
         id="path284" />
    </clipPath>
  </defs>
  <sodipodi:namedview
     id="namedview4"
     pagecolor="#ffffff"
     bordercolor="#000000"
     borderopacity="0.25"
     inkscape:showpageshadow="2"
     inkscape:pageopacity="0.0"
     inkscape:pagecheckerboard="true"
     inkscape:deskcolor="#d1d1d1"
     showgrid="false"
     inkscape:zoom="0.24976717"
     inkscape:cx="1847.7208"
     inkscape:cy="562.52389"
     inkscape:window-width="1512"
     inkscape:window-height="830"
     inkscape:window-x="1924"
     inkscape:window-y="34"
     inkscape:window-maximized="0"
     inkscape:current-layer="g18">
    <inkscape:page
       x="0"
       y="0"
       id="page8"
       width="3781.4529"
       height="1889.76"
       margin="0"
       bleed="0" />
  </sodipodi:namedview>
  <g
     id="g10"
     inkscape:groupmode="layer"
     inkscape:label="Page 1"
     transform="matrix(1.3333333,0,0,-1.3333333,0,1889.76)"
     style="display:inline">
    <g
       id="g12"
       transform="translate(1600.877,720.0782)"
       style="display:inline">
      <path
         d="m 0,0 12.47,-16.205 v -116.682 h -364.611 l -17.621,23.223"
         style="fill:none;stroke:#001689;stroke-width:7.296;stroke-linecap:butt;stroke-linejoin:miter;stroke-miterlimit:10;stroke-dasharray:none;stroke-opacity:1"
         id="path14" />
    </g>
    <g
       id="g16"
       style="display:inline">
      <g
         id="g18"
         clip-path="url(#clipPath22)">
        <g
           id="g24"
           transform="translate(2472.5781,875.5084)">
          <path
             d="m 0,0 c 30.784,-25.759 46.185,-67.308 46.185,-124.627 0,-57.143 -15.401,-98.554 -46.13,-124.241 -30.718,-25.694 -80.447,-38.536 -149.367,-38.536 -69.005,0 -107.276,-2.394 -137.92,23.224 m 137.859,256.272 c -32.107,0 -55.494,-9.187 -70.059,-27.565 -14.521,-18.467 -21.828,-48.188 -21.828,-89.154 0,-40.948 7.252,-70.608 21.733,-88.82"
             style="fill:none;stroke:#001689;stroke-width:7.296;stroke-linecap:butt;stroke-linejoin:miter;stroke-miterlimit:10;stroke-dasharray:none;stroke-opacity:1"
             id="path26" />
        </g>
        <g
           id="g28"
           transform="translate(342.1709,847.8951)">
          <path
             d="M 0,0 H -61.922 L -73.729,18.892"
             style="fill:none;stroke:#001689;stroke-width:7.296;stroke-linecap:butt;stroke-linejoin:miter;stroke-miterlimit:10;stroke-dasharray:none;stroke-opacity:1"
             id="path30" />
        </g>
        <g
           id="g32"
           transform="translate(697.4707,684.0396)">
          <path
             d="m 0,0 c 2.967,-12.627 -0.373,-45.396 -5.501,-55.976 -5.109,-10.511 -15.148,-22.264 -24.741,-28.956 -7.505,-5.381 -20.516,-11.917 -32.18,-11.917 h -54.91 -30.766 -269.124 l -11.807,19.641"
             style="fill:none;stroke:#001689;stroke-width:7.296;stroke-linecap:butt;stroke-linejoin:miter;stroke-miterlimit:10;stroke-dasharray:none;stroke-opacity:1"
             id="path34" />
        </g>
        <g
           id="g36"
           transform="translate(541.4229,892.3716)">
          <path
             d="m 0,0 v 0 h 19.62 c 27.678,0 47.279,-0.754 58.737,-2.318 11.429,-1.499 20.644,-4.168 27.624,-7.981 11.887,-6.111 20.998,-14.534 27.39,-25.33 6.415,-10.726 9.587,-23.168 9.587,-37.267 0,-18.25 -15.082,-43.712 -26.161,-55.885"
             style="fill:none;stroke:#001689;stroke-width:7.296;stroke-linecap:butt;stroke-linejoin:miter;stroke-miterlimit:10;stroke-dasharray:none;stroke-opacity:1"
             id="path38" />
        </g>
        <g
           id="g40"
           transform="translate(570.5635,713.8873)">
          <path
             d="m 0,0 c -9.347,6.542 -21.124,7.671 -42.351,7.671 h -96.935 v -47.814"
             style="fill:none;stroke:#001689;stroke-width:7.296;stroke-linecap:butt;stroke-linejoin:miter;stroke-miterlimit:10;stroke-dasharray:none;stroke-opacity:1"
             id="path42" />
        </g>
        <g
           id="g44"
           transform="translate(560.4766,835.379)">
          <path
             d="m 0,0 c -9.4,6.567 -20.606,7.365 -41.839,7.365 h -87.36 l -0.35,-35.586"
             style="fill:none;stroke:#001689;stroke-width:7.296;stroke-linecap:butt;stroke-linejoin:miter;stroke-miterlimit:10;stroke-dasharray:none;stroke-opacity:1"
             id="path46" />
        </g>
        <g
           id="g48"
           transform="translate(506.0782,872.7359)">
          <path
             d="M 0,0 H -90.016 V -81.293 H 0 c 23.092,0 39.251,3.053 48.356,9.095 9.106,6.052 13.631,16.004 13.631,29.855 0,14.783 -4.838,25.567 -14.563,32.218 C 37.728,-3.383 21.888,0 0,0 m 9.846,-124.465 h -99.862 v -81.258 H 9.846 c 22.658,0 38.667,3.064 47.899,9.111 9.292,6.036 13.866,15.998 13.866,29.837 0,14.779 -4.808,25.555 -14.462,32.211 -9.629,6.731 -25.403,10.099 -47.303,10.099 M 23.471,50.97 h 20.233 c 28.539,0 48.731,-0.781 60.525,-2.389 11.785,-1.535 21.276,-4.281 28.461,-8.191 12.247,-6.271 21.642,-14.918 28.232,-26.015 6.614,-11.013 9.888,-23.794 9.888,-38.276 0,-18.746 -5.664,-34.273 -17.086,-46.755 -11.308,-12.477 -27.077,-20.262 -47.135,-23.412 v -12.413 c 22.069,-1.239 39.51,-8.328 52.515,-21.42 13.018,-13.079 19.517,-30.162 19.517,-51.194 0,-13.332 -2.689,-25.418 -7.974,-36.28 -5.272,-10.794 -12.92,-19.665 -22.803,-26.553 -7.74,-5.528 -17.525,-9.417 -29.315,-11.793 -11.862,-2.296 -30.223,-3.444 -55.157,-3.444 H 31.68 -245.672 v 51.442 h 63.83 V 0 h -63.83 v 50.97 z"
             style="fill:#001689;fill-opacity:1;fill-rule:evenodd;stroke:none"
             id="path50" />
        </g>
        <g
           id="g52"
           transform="translate(1454.4648,910.9034)">
          <path
             d="M 0,0 14.221,-15.584 V -66.553 H -49.146 V -226.864"
             style="fill:none;stroke:#001689;stroke-width:7.296;stroke-linecap:butt;stroke-linejoin:miter;stroke-miterlimit:10;stroke-dasharray:none;stroke-opacity:1"
             id="path54" />
        </g>
        <g
           id="g56"
           transform="translate(1312.5596,844.3506)">
          <path
             d="M 0,0 H -63.823 L -81.162,23.24"
             style="fill:none;stroke:#001689;stroke-width:7.296;stroke-linecap:butt;stroke-linejoin:miter;stroke-miterlimit:10;stroke-dasharray:none;stroke-opacity:1"
             id="path58" />
        </g>
        <g
           id="g60"
           transform="translate(1224.7715,615.5709)">
          <path
             d="M 0,0 V 50.977 H 63.824 V 257.165 H 0 v 50.97 h 219.961 v -50.97 H 156.589 V 50.977 h 102.617 c 0,0 7.433,-1.236 13.548,4.883 4.622,4.62 3.683,12.166 3.683,12.166 v 48.658 H 364.61 V 0 Z"
             style="fill:#001689;fill-opacity:1;fill-rule:evenodd;stroke:none"
             id="path62" />
        </g>
        <g
           id="g64"
           transform="translate(2040.9912,720.0782)">
          <path
             d="m 0,0 12.464,-16.205 v -116.682 h -364.598 l -17.615,23.223"
             style="fill:none;stroke:#001689;stroke-width:7.296;stroke-linecap:butt;stroke-linejoin:miter;stroke-miterlimit:10;stroke-dasharray:none;stroke-opacity:1"
             id="path66" />
        </g>
        <g
           id="g68"
           transform="translate(1894.585,910.9034)">
          <path
             d="M 0,0 14.216,-15.584 V -66.553 H -49.15 v -160.311"
             style="fill:none;stroke:#001689;stroke-width:7.296;stroke-linecap:butt;stroke-linejoin:miter;stroke-miterlimit:10;stroke-dasharray:none;stroke-opacity:1"
             id="path70" />
        </g>
        <g
           id="g72"
           transform="translate(1752.6865,844.3506)">
          <path
             d="M 0,0 H -63.829 L -81.168,23.24"
             style="fill:none;stroke:#001689;stroke-width:7.296;stroke-linecap:butt;stroke-linejoin:miter;stroke-miterlimit:10;stroke-dasharray:none;stroke-opacity:1"
             id="path74" />
        </g>
        <g
           id="g76"
           transform="translate(1664.8926,615.5709)">
          <path
             d="M 0,0 V 50.977 H 63.83 V 257.165 H 0 v 50.97 h 219.955 v -50.97 H 156.589 V 50.977 h 102.617 c 0,0 7.427,-1.236 13.547,4.883 4.622,4.62 3.678,12.166 3.678,12.166 v 48.658 H 364.61 V 0 Z"
             style="fill:#001689;fill-opacity:1;fill-rule:evenodd;stroke:none"
             id="path78" />
        </g>
        <g
           id="g80"
           transform="translate(1664.8926,615.5709)">
          <path
             d="M 0,0 V 50.977 H 63.83 V 257.165 H 0 v 50.97 h 219.955 v -50.97 H 156.589 V 50.977 h 102.617 c 0,0 7.427,-1.236 13.547,4.883 4.622,4.62 3.678,12.166 3.678,12.166 v 48.658 H 364.61 V 0 Z"
             style="fill:none;stroke:#001689;stroke-width:7.416;stroke-linecap:butt;stroke-linejoin:miter;stroke-miterlimit:10;stroke-dasharray:none;stroke-opacity:1"
             id="path82" />
        </g>
        <g
           id="g84"
           transform="translate(2094.0488,768.939)">
          <path
             d="m 0,0 c 0,57.865 15.827,99.737 47.436,125.616 31.601,25.842 82.793,38.776 153.652,38.776 70.738,0 121.947,-12.934 153.628,-38.881 C 386.384,99.563 402.235,57.716 402.235,0 c 0,-57.555 -15.851,-99.246 -47.441,-125.127 -31.62,-25.873 -82.793,-38.795 -153.706,-38.795 -70.998,0 -122.279,12.922 -153.827,38.729 C 15.749,-99.413 0,-57.7 0,0 m 106.505,0 c 0,-41.239 7.45,-71.104 22.346,-89.443 14.871,-18.467 38.967,-27.655 72.182,-27.655 33.36,0 57.475,9.188 72.321,27.655 14.938,18.339 22.365,48.204 22.365,89.443 0,41.244 -7.517,71.182 -22.443,89.765 -15.004,18.535 -39.01,27.787 -72.243,27.787 -33.046,0 -57.089,-9.252 -72.087,-27.787 C 114.016,71.182 106.505,41.244 106.505,0"
             style="fill:#001689;fill-opacity:1;fill-rule:evenodd;stroke:none"
             id="path86" />
        </g>
        <g
           id="g88">
          <g
             id="g90" />
          <g
             id="g102">
            <g
               clip-path="url(#clipPath94)"
               opacity="0.75"
               id="g100">
              <g
                 transform="translate(2414.8301,1024.5405)"
                 id="g98">
                <path
                   d="m 0,0 c 0,-12.492 7.475,-33.652 50.932,-33.652 10.442,0 46.955,2.66 46.955,32.957 0,18.092 -14.92,23.694 -31.181,27.063 l -29.05,6.021 c -4.966,0.988 -12.591,2.682 -12.591,10.533 0,9.124 11.285,12.058 20.734,12.058 21.731,0 23.729,-10.654 24.374,-15.147 H 94.089 C 93.902,52.169 84.117,72.382 47.616,72.382 8.961,72.382 1.823,52.597 1.823,41.373 1.823,19.212 20.413,15.569 39.666,11.796 L 52.437,9.258 C 65.039,6.734 74.006,4.627 74.006,-3.223 74.006,-13.905 60.898,-16.266 49.12,-16.266 27.364,-16.266 24.066,-5.613 23.892,0 Z m -117.459,69.723 h -87.577 V -30.992 h 90.4 v 17.805 h -66.039 v 26.074 h 58.071 v 17.84 h -58.071 v 21.174 h 63.216 z M -356.384,51.901 h 36.014 v 17.822 h -96.87 V 51.901 h 35.995 v -82.893 h 24.861 z M -586.316,25.382 v 26.947 h 31.029 c 14.595,0 17.411,-7.88 17.411,-13.184 0,-9.979 -6.301,-13.763 -19.246,-13.763 z m -24.38,-56.374 h 24.38 V 8.429 h 25.721 c 18.41,0 19.415,-5.337 19.415,-19.078 0,-10.381 0.987,-15.581 2.655,-20.343 h 27.521 v 2.674 c -5.29,1.657 -5.29,5.31 -5.29,20.055 0,18.784 -5.314,21.884 -15.088,25.513 11.772,3.356 18.392,12.894 18.392,23.999 0,8.69 -5.808,28.474 -37.489,28.474 h -60.217 z m -210.05,50.348 c 0,28.186 18.934,35.21 32.36,35.21 13.427,0 32.361,-7.024 32.361,-35.21 0,-28.187 -18.934,-35.212 -32.361,-35.212 -13.426,0 -32.36,7.025 -32.36,35.212 m -24.885,0 c 0,-47.273 41.489,-53.008 57.245,-53.008 15.75,0 57.24,5.735 57.24,53.008 0,47.272 -41.49,53.026 -57.24,53.026 -15.756,0 -57.245,-5.754 -57.245,-53.026 m -180.999,3.362 v 29.611 h 19.745 c 15.432,0 21.889,-4.07 21.889,-13.891 0,-4.497 0,-15.72 -18.584,-15.72 z m 0,-17.396 h 28.532 c 32.024,0 37.999,23.011 37.999,32.128 0,19.778 -13.925,32.273 -36.988,32.273 h -54.429 V -30.992 h 24.886 z M -1268.847,0 c 0,-12.492 7.451,-33.652 50.926,-33.652 10.454,0 46.955,2.66 46.955,32.957 0,18.092 -14.931,23.694 -31.199,27.063 l -28.996,6.021 c -5.031,0.988 -12.638,2.682 -12.638,10.533 0,9.124 11.284,12.058 20.733,12.058 21.744,0 23.742,-10.654 24.386,-15.147 h 23.905 c -0.175,12.336 -9.967,32.549 -46.474,32.549 -38.648,0 -45.774,-19.785 -45.774,-31.009 0,-22.161 18.578,-25.804 37.836,-29.577 l 12.753,-2.538 c 12.621,-2.524 21.587,-4.631 21.587,-12.481 0,-10.682 -13.12,-13.043 -24.903,-13.043 -21.726,0 -25.042,10.653 -25.192,16.266 z m -141.525,-0.435 h -0.325 l -47.304,70.158 h -26.197 V -30.992 h 23.224 V 40.83 h 0.337 l 48.61,-71.822 h 24.885 V 69.723 h -23.23 z m -245.882,47.419 h 0.349 l 14.745,-39.83 h -30.344 z m -21.876,-57.247 h 43.933 l 7.649,-20.729 h 27.046 l -41.965,100.715 h -28.707 l -42.489,-100.715 h 26.227 z m -221.171,35.645 v 26.947 h 31.03 c 14.588,0 17.422,-7.88 17.422,-13.184 0,-9.979 -6.3,-13.763 -19.24,-13.763 z m -24.387,-56.374 h 24.387 V 8.429 h 25.728 c 18.41,0 19.409,-5.337 19.409,-19.078 0,-10.381 0.975,-15.581 2.647,-20.343 h 27.528 v 2.674 c -5.296,1.657 -5.296,5.31 -5.296,20.055 0,18.784 -5.314,21.884 -15.088,25.513 11.772,3.356 18.41,12.894 18.41,23.999 0,8.69 -5.813,28.474 -37.5,28.474 h -60.225 z m -151.298,82.893 h 36.001 v 17.822 h -96.888 V 51.901 h 35.989 v -82.893 h 24.898 z"
                   style="fill:#211d1d;fill-opacity:1;fill-rule:evenodd;stroke:none"
                   id="path96" />
              </g>
            </g>
          </g>
        </g>
        <g
           id="g104"
           transform="translate(2404.6328,1034.7378)">
          <path
             d="m 0,0 c 0,-12.492 7.475,-33.652 50.932,-33.652 10.442,0 46.955,2.66 46.955,32.957 0,18.092 -14.92,23.694 -31.181,27.063 l -29.05,6.021 c -4.966,0.988 -12.591,2.682 -12.591,10.533 0,9.124 11.285,12.058 20.734,12.058 21.731,0 23.729,-10.654 24.374,-15.147 H 94.089 C 93.902,52.169 84.117,72.382 47.616,72.382 8.961,72.382 1.823,52.597 1.823,41.373 1.823,19.212 20.413,15.569 39.666,11.796 L 52.437,9.258 C 65.039,6.734 74.006,4.627 74.006,-3.223 74.006,-13.905 60.898,-16.266 49.12,-16.266 27.364,-16.266 24.066,-5.613 23.892,0 Z m -117.459,69.723 h -87.577 V -30.992 h 90.4 v 17.805 h -66.039 v 26.074 h 58.071 v 17.84 h -58.071 v 21.174 h 63.216 z M -356.384,51.901 h 36.014 v 17.822 h -96.87 V 51.901 h 35.995 v -82.893 h 24.861 z M -586.316,25.382 v 26.947 h 31.029 c 14.595,0 17.411,-7.88 17.411,-13.184 0,-9.979 -6.301,-13.763 -19.246,-13.763 z m -24.38,-56.374 h 24.38 V 8.429 h 25.721 c 18.41,0 19.415,-5.337 19.415,-19.078 0,-10.381 0.987,-15.581 2.655,-20.343 h 27.521 v 2.674 c -5.29,1.657 -5.29,5.31 -5.29,20.055 0,18.784 -5.314,21.884 -15.088,25.513 11.772,3.356 18.392,12.894 18.392,23.999 0,8.69 -5.808,28.474 -37.489,28.474 h -60.217 z m -210.05,50.348 c 0,28.186 18.934,35.21 32.36,35.21 13.427,0 32.361,-7.024 32.361,-35.21 0,-28.188 -18.934,-35.212 -32.361,-35.212 -13.426,0 -32.36,7.024 -32.36,35.212 m -24.885,0 c 0,-47.273 41.489,-53.008 57.245,-53.008 15.75,0 57.24,5.735 57.24,53.008 0,47.272 -41.49,53.026 -57.24,53.026 -15.756,0 -57.245,-5.754 -57.245,-53.026 m -180.999,3.362 v 29.611 h 19.745 c 15.432,0 21.889,-4.07 21.889,-13.891 0,-4.497 0,-15.72 -18.584,-15.72 z m 0,-17.396 h 28.532 c 32.024,0 37.999,23.011 37.999,32.128 0,19.778 -13.925,32.273 -36.988,32.273 h -54.429 V -30.992 h 24.886 z M -1268.847,0 c 0,-12.492 7.451,-33.652 50.926,-33.652 10.454,0 46.955,2.66 46.955,32.957 0,18.092 -14.931,23.694 -31.199,27.063 l -28.996,6.021 c -5.031,0.988 -12.638,2.682 -12.638,10.533 0,9.124 11.284,12.058 20.733,12.058 21.744,0 23.742,-10.654 24.386,-15.147 h 23.905 c -0.175,12.336 -9.967,32.549 -46.474,32.549 -38.648,0 -45.774,-19.785 -45.774,-31.009 0,-22.161 18.578,-25.804 37.836,-29.577 l 12.753,-2.538 c 12.621,-2.524 21.587,-4.631 21.587,-12.481 0,-10.682 -13.12,-13.043 -24.903,-13.043 -21.726,0 -25.042,10.653 -25.192,16.266 z m -141.525,-0.435 h -0.325 l -47.304,70.158 h -26.197 V -30.992 h 23.224 V 40.83 h 0.337 l 48.61,-71.822 h 24.885 V 69.723 h -23.23 z m -245.882,47.419 h 0.349 l 14.745,-39.83 h -30.344 z m -21.876,-57.247 h 43.933 l 7.649,-20.729 h 27.046 l -41.965,100.715 h -28.707 l -42.489,-100.715 h 26.227 z m -221.171,35.645 v 26.947 h 31.03 c 14.588,0 17.422,-7.88 17.422,-13.184 0,-9.979 -6.3,-13.763 -19.24,-13.763 z m -24.387,-56.374 h 24.387 V 8.429 h 25.728 c 18.41,0 19.409,-5.337 19.409,-19.078 0,-10.381 0.975,-15.581 2.647,-20.343 h 27.528 v 2.674 c -5.296,1.657 -5.296,5.31 -5.296,20.055 0,18.784 -5.314,21.884 -15.088,25.513 11.772,3.356 18.41,12.894 18.41,23.999 0,8.69 -5.813,28.474 -37.5,28.474 h -60.225 z m -151.298,82.893 h 36.001 v 17.822 h -96.888 V 51.901 h 35.989 v -82.893 h 24.898 z"
             style="fill:#facd09;fill-opacity:1;fill-rule:evenodd;stroke:none"
             id="path106" />
        </g>
        <g
           id="g108"
           transform="translate(2520.8203,552.5797)">
          <path
             d="m 0,0 h 3.762 c 5.362,0 8.684,0.217 9.954,0.615 1.318,0.399 2.323,1.126 3.075,2.145 0.759,1.019 1.132,2.177 1.132,3.478 0,1.261 -0.373,2.394 -1.083,3.39 -0.753,0.98 -1.781,1.69 -3.154,2.113 C 12.338,12.166 9.04,12.38 3.762,12.38 H 0 Z m -9.357,-26.114 v 45.768 h 9.286 c 8.714,0 13.606,-0.028 14.641,-0.102 3.07,-0.256 5.459,-0.876 7.168,-1.846 1.703,-0.935 3.124,-2.404 4.28,-4.399 1.161,-1.959 1.733,-4.158 1.733,-6.539 0,-3.318 -1.096,-6.131 -3.244,-8.485 -2.137,-2.353 -5.17,-3.799 -9.075,-4.366 1.408,-0.507 2.473,-1.108 3.225,-1.709 0.752,-0.638 1.787,-1.797 3.081,-3.523 0.362,-0.454 1.487,-2.296 3.419,-5.587 l 5.363,-9.212 H 18.964 l -3.798,7.441 c -2.558,5.007 -4.687,8.173 -6.36,9.447 -1.68,1.282 -3.81,1.952 -6.392,1.952 H 0 v -18.84 z m 19.558,57.797 c -5.933,0 -11.651,-1.493 -17.079,-4.454 -5.477,-2.977 -9.786,-7.224 -12.916,-12.79 -3.147,-5.532 -4.724,-11.383 -4.724,-17.456 0,-6.065 1.553,-11.843 4.616,-17.311 3.057,-5.512 7.337,-9.77 12.825,-12.843 5.501,-3.089 11.272,-4.649 17.278,-4.649 6.036,0 11.82,1.56 17.303,4.649 5.482,3.073 9.767,7.331 12.849,12.843 3.075,5.468 4.627,11.246 4.627,17.311 0,6.073 -1.57,11.924 -4.706,17.456 -3.165,5.566 -7.444,9.813 -12.915,12.79 -5.518,2.961 -11.212,4.454 -17.158,4.454 m -0.012,8.578 c 7.403,0 14.523,-1.859 21.311,-5.581 6.825,-3.707 12.169,-9.026 16.081,-15.946 3.894,-6.908 5.838,-14.17 5.838,-21.74 0,-7.532 -1.92,-14.701 -5.7,-21.552 -3.858,-6.821 -9.19,-12.13 -15.985,-15.96 -6.872,-3.817 -14.022,-5.728 -21.545,-5.728 -7.552,0 -14.714,1.911 -21.563,5.728 -6.818,3.83 -12.145,9.139 -15.973,15.96 -3.821,6.851 -5.723,14.02 -5.723,21.552 0,7.57 1.932,14.832 5.832,21.74 3.882,6.92 9.244,12.239 16.081,15.946 6.788,3.722 13.908,5.581 21.346,5.581"
             style="fill:#ed2625;fill-opacity:1;fill-rule:evenodd;stroke:none"
             id="path110" />
        </g>
        <path
           d="m 268.76,310.204 h 2271.639 v 9.439 H 268.76 Z"
           style="fill:#001689;fill-opacity:1;fill-rule:evenodd;stroke:none"
           id="path112" />
        <path
           d="m 268.76,474.628 h 2271.639 v 9.447 H 268.76 Z"
           style="fill:#001689;fill-opacity:1;fill-rule:evenodd;stroke:none"
           id="path114" />
        <g
           id="g116"
           transform="translate(1018.9893,737.9898)">
          <path
             d="m 0,0 h -82.456 l -0.36,-53.95"
             style="fill:none;stroke:#001689;stroke-width:7.296;stroke-linecap:butt;stroke-linejoin:miter;stroke-miterlimit:10;stroke-dasharray:none;stroke-opacity:1"
             id="path118" />
        </g>
        <g
           id="g120"
           transform="translate(1069.9639,849.5064)">
          <path
             d="m 0,0 h -133.111 l -0.632,-42.349"
             style="fill:none;stroke:#001689;stroke-width:7.296;stroke-linecap:butt;stroke-linejoin:miter;stroke-miterlimit:10;stroke-dasharray:none;stroke-opacity:1"
             id="path122" />
        </g>
        <g
           id="g128"
           transform="translate(843.666,849.5064)">
          <path
             d="M 0,0 H -62.013 L -77.678,17.28"
             style="fill:none;stroke:#001689;stroke-width:7.296;stroke-linecap:butt;stroke-linejoin:miter;stroke-miterlimit:10;stroke-dasharray:none;stroke-opacity:1"
             id="path130" />
        </g>
        <g
           id="g132"
           transform="translate(1162.8135,724.1373)">
          <path
             d="m 0,0 14.228,-9.64 -0.32,-127.306 h -395.387 l -15.015,19.64"
             style="fill:none;stroke:#001689;stroke-width:7.296;stroke-linecap:butt;stroke-linejoin:miter;stroke-miterlimit:10;stroke-dasharray:none;stroke-opacity:1"
             id="path134" />
        </g>
        <g
           id="g136"
           transform="translate(911.5996,789.1465)">
          <path
             d="m 0,0 v 83.589 h 126.732 c 0,0 13.939,-0.543 20.325,-5.652 4.609,-3.687 4.495,-17.577 4.495,-17.577 V 15.618 h 88.625 v 118.941 h -395.375 v -50.97 h 62.006 v -206.188 h -62.006 v -50.977 h 395.375 v 122.159 h -88.625 v -46.585 c 0,0 1.968,-12.478 -4.959,-18.015 -7.914,-6.332 -15.973,-6.582 -15.973,-6.582 H 0 v 83.116 h 81.765 v -18.045 l 46.737,0.043 V 18.011 H 81.765 V 0 H 0"
             style="fill:#001689;fill-opacity:1;fill-rule:evenodd;stroke:none"
             id="path138" />
        </g>
        <g
           id="g140">
          <g
             id="g142" />
          <g
             id="g214">
            <g
               clip-path="url(#clipPath146)"
               opacity="0.75"
               id="g212">
              <g
                 transform="translate(694.4336,360.6714)"
                 id="g150">
                <path
                   d="m 0,0 c 8.221,0 14.696,2.346 19.427,7.039 4.724,4.678 7.09,11.09 7.09,19.241 0,8.208 -2.366,14.664 -7.09,19.354 -4.731,4.678 -11.206,7.02 -19.427,7.02 -8.197,0 -14.696,-2.356 -19.451,-7.046 -4.742,-4.7 -7.132,-11.159 -7.132,-19.328 0,-8.151 2.365,-14.563 7.096,-19.241 C -14.727,2.346 -8.239,0 0,0 m -49.235,26.28 c 0,13.145 4.459,23.634 13.366,31.465 8.932,7.872 20.907,11.798 35.869,11.798 15.021,0 26.943,-3.926 35.833,-11.798 C 44.728,49.914 49.169,39.425 49.169,26.28 49.169,13.137 44.728,2.643 35.833,-5.182 26.943,-13.021 15.021,-16.939 0,-16.939 c -14.962,0 -26.937,3.918 -35.869,11.757 -8.907,7.825 -13.366,18.319 -13.366,31.462"
                   style="fill:#211d1d;fill-opacity:1;fill-rule:nonzero;stroke:none"
                   id="path148" />
              </g>
              <g
                 transform="translate(778.3037,388.2339)"
                 id="g154">
                <path
                   d="m 0,0 h 18.886 c 6.921,0 11.76,0.883 14.54,2.624 2.78,1.753 4.182,4.704 4.182,8.86 0,4.252 -1.198,7.236 -3.629,8.933 -2.383,1.717 -6.993,2.561 -13.751,2.561 H 0 Z m -20.588,-42.336 v 82.154 h 48.627 c 9.569,0 17.014,-2.487 22.37,-7.419 5.344,-4.945 8.029,-11.804 8.029,-20.573 0,-8.785 -2.685,-15.622 -8.029,-20.516 -5.356,-4.912 -12.801,-7.355 -22.37,-7.355 H 0 v -26.291 z"
                   style="fill:#211d1d;fill-opacity:1;fill-rule:nonzero;stroke:none"
                   id="path152" />
              </g>
              <g
                 transform="translate(849.0664,345.898)"
                 id="g158">
                <path
                   d="M 0,0 V 82.154 H 72.923 V 65.545 H 20.576 V 51.666 H 67.2 V 34.945 H 20.576 V 17.282 H 72.923 V 0 Z"
                   style="fill:#211d1d;fill-opacity:1;fill-rule:nonzero;stroke:none"
                   id="path156" />
              </g>
              <g
                 transform="translate(955.9629,392.9986)"
                 id="g162">
                <path
                   d="m 0,0 h 23.278 c 6.139,0 10.466,0.753 12.957,2.259 2.504,1.484 3.744,3.954 3.744,7.39 0,3.343 -1.162,5.686 -3.491,7.014 -2.329,1.321 -7.016,1.984 -14.118,1.984 H 0 Z m -20.595,-47.101 v 82.155 h 50.469 c 10.947,0 19.03,-1.808 24.224,-5.407 5.188,-3.598 7.763,-9.146 7.763,-16.721 0,-4.79 -1.203,-9.038 -3.634,-12.748 -2.426,-3.72 -5.76,-6.376 -10.021,-8.011 3.635,-1.517 6.187,-3.396 7.644,-5.622 1.456,-2.245 2.329,-6.192 2.581,-11.869 0.012,-0.567 0.072,-1.311 0.108,-2.268 0.445,-10.192 1.89,-16.702 4.334,-19.509 h -23.11 c -0.554,0.898 -0.957,1.88 -1.258,2.944 -0.259,1.079 -0.398,2.226 -0.398,3.457 v 5.548 c 0,7.56 -0.968,12.489 -2.919,14.824 -1.931,2.346 -5.747,3.491 -11.417,3.491 H 23.278 0 v -30.264 z"
                   style="fill:#211d1d;fill-opacity:1;fill-rule:nonzero;stroke:none"
                   id="path160" />
              </g>
              <g
                 transform="translate(1056.1484,379.8941)"
                 id="g166">
                <path
                   d="M 0,0 H 21.732 L 10.664,25.371 Z M -36.645,-33.996 2.281,48.158 h 19.758 l 37.44,-82.154 H 36.615 l -7.511,17.38 H -7.041 l -7.385,-17.38 z"
                   style="fill:#211d1d;fill-opacity:1;fill-rule:nonzero;stroke:none"
                   id="path164" />
              </g>
              <g
                 transform="translate(1142.4502,411.5484)"
                 id="g170">
                <path
                   d="m 0,0 v -48.604 h 15.937 c 9.4,0 16.532,2.071 21.449,6.184 4.881,4.14 7.33,10.176 7.33,18.159 0,7.964 -2.438,13.981 -7.319,18.106 C 32.541,-2.046 25.385,0 15.937,0 Z m 15.503,16.504 c 8.865,0 15.533,-0.423 19.957,-1.257 4.441,-0.836 8.371,-2.216 11.855,-4.149 6.067,-3.281 10.767,-8.021 14.047,-14.202 3.298,-6.191 4.959,-13.345 4.959,-21.493 0,-8.115 -1.661,-15.258 -4.959,-21.429 -3.28,-6.199 -7.98,-10.963 -14.047,-14.28 -3.484,-1.923 -7.414,-3.295 -11.855,-4.11 -4.424,-0.829 -11.092,-1.234 -19.957,-1.234 h -37.09 v 82.154 z"
                   style="fill:#211d1d;fill-opacity:1;fill-rule:nonzero;stroke:none"
                   id="path168" />
              </g>
              <g
                 transform="translate(1267.4492,360.6714)"
                 id="g174">
                <path
                   d="m 0,0 c 8.233,0 14.69,2.346 19.415,7.039 4.731,4.678 7.09,11.09 7.09,19.241 0,8.208 -2.359,14.664 -7.09,19.354 -4.725,4.678 -11.182,7.02 -19.415,7.02 -8.202,0 -14.696,-2.356 -19.451,-7.046 -4.754,-4.7 -7.125,-11.159 -7.125,-19.328 0,-8.151 2.359,-14.563 7.096,-19.241 C -14.757,2.346 -8.257,0 0,0 m -49.235,26.28 c 0,13.145 4.435,23.634 13.373,31.465 8.943,7.872 20.883,11.798 35.862,11.798 15.004,0 26.968,-3.926 35.839,-11.798 C 44.704,49.914 49.157,39.425 49.157,26.28 49.157,13.137 44.704,2.643 35.839,-5.182 26.968,-13.021 15.004,-16.939 0,-16.939 c -14.979,0 -26.919,3.918 -35.862,11.757 -8.938,7.825 -13.373,18.319 -13.373,31.462"
                   style="fill:#211d1d;fill-opacity:1;fill-rule:nonzero;stroke:none"
                   id="path172" />
              </g>
              <g
                 transform="translate(1351.3262,392.9986)"
                 id="g178">
                <path
                   d="m 0,0 h 23.267 c 6.144,0 10.465,0.753 12.974,2.259 2.492,1.484 3.732,3.954 3.732,7.39 0,3.343 -1.15,5.686 -3.485,7.014 -2.329,1.321 -7.029,1.984 -14.112,1.984 H 0 Z m -20.601,-47.101 v 82.155 h 50.475 c 10.966,0 19.048,-1.808 24.206,-5.407 5.176,-3.598 7.781,-9.146 7.781,-16.721 0,-4.79 -1.21,-9.038 -3.623,-12.748 -2.443,-3.72 -5.771,-6.376 -10.038,-8.011 3.629,-1.517 6.169,-3.396 7.643,-5.622 1.474,-2.245 2.323,-6.192 2.576,-11.869 0.036,-0.567 0.084,-1.311 0.12,-2.268 0.434,-10.192 1.884,-16.702 4.315,-19.509 H 39.763 c -0.56,0.898 -0.963,1.88 -1.252,2.944 -0.271,1.079 -0.434,2.226 -0.434,3.457 v 5.548 c 0,7.56 -0.963,12.489 -2.9,14.824 -1.933,2.346 -5.742,3.491 -11.399,3.491 H 23.267 0 v -30.264 z"
                   style="fill:#211d1d;fill-opacity:1;fill-rule:nonzero;stroke:none"
                   id="path176" />
              </g>
              <g
                 transform="translate(1469.6025,345.898)"
                 id="g182">
                <path
                   d="M 0,0 V 82.154 H 20.631 V 17.282 H 62.873 V 0 Z"
                   style="fill:#211d1d;fill-opacity:1;fill-rule:nonzero;stroke:none"
                   id="path180" />
              </g>
              <g
                 transform="translate(1585.7969,360.6714)"
                 id="g186">
                <path
                   d="m 0,0 c 8.228,0 14.697,2.346 19.415,7.039 4.731,4.678 7.06,11.09 7.06,19.241 0,8.208 -2.329,14.664 -7.06,19.354 -4.718,4.678 -11.187,7.02 -19.415,7.02 -8.221,0 -14.69,-2.356 -19.475,-7.046 -4.76,-4.7 -7.126,-11.159 -7.126,-19.328 0,-8.151 2.36,-14.563 7.114,-19.241 C -14.738,2.346 -8.257,0 0,0 m -49.266,26.28 c 0,13.145 4.472,23.634 13.379,31.465 8.919,7.872 20.89,11.798 35.887,11.798 14.992,0 26.956,-3.926 35.821,-11.798 C 44.722,49.914 49.14,39.425 49.14,26.28 49.14,13.137 44.722,2.643 35.821,-5.182 26.956,-13.021 14.992,-16.939 0,-16.939 c -14.997,0 -26.968,3.918 -35.887,11.757 -8.907,7.825 -13.379,18.319 -13.379,31.462"
                   style="fill:#211d1d;fill-opacity:1;fill-rule:nonzero;stroke:none"
                   id="path184" />
              </g>
              <g
                 transform="translate(1723.1035,355.1167)"
                 id="g190">
                <path
                   d="m 0,0 c -3.954,-3.81 -8.426,-6.659 -13.433,-8.538 -5.019,-1.9 -10.671,-2.847 -16.96,-2.847 -6.348,0 -12.336,0.906 -17.988,2.672 -5.681,1.789 -10.61,4.299 -14.793,7.542 -5.133,4.093 -8.972,8.84 -11.513,14.261 -2.54,5.434 -3.839,11.662 -3.839,18.745 0,13.144 4.502,23.634 13.409,31.465 8.936,7.872 20.888,11.798 35.887,11.798 12.65,0 23.206,-2.822 31.649,-8.474 8.45,-5.656 13.27,-13.034 14.492,-22.134 H -5.471 c -1.889,4.595 -4.808,8.034 -8.738,10.305 -3.966,2.277 -8.967,3.414 -15.021,3.414 -8.228,0 -14.697,-2.356 -19.482,-7.046 -4.748,-4.7 -7.125,-11.159 -7.125,-19.328 0,-8.151 2.371,-14.564 7.102,-19.241 4.759,-4.694 11.241,-7.039 19.505,-7.039 5.626,0 10.568,1.213 14.816,3.617 4.262,2.407 7.343,5.724 9.268,9.939 H -23.79 V 35.478 H 16.683 V -9.219 H 1.138 Z"
                   style="fill:#211d1d;fill-opacity:1;fill-rule:nonzero;stroke:none"
                   id="path188" />
              </g>
              <path
                 d="m 1758.01,428.052 h 20.601 v -82.154 h -20.601 z"
                 style="fill:#211d1d;fill-opacity:1;fill-rule:nonzero;stroke:none"
                 id="path192" />
              <g
                 transform="translate(1793.8418,374.3365)"
                 id="g196">
                <path
                   d="m 0,0 h 21.034 v -0.768 c 0,-4.641 2.023,-8.155 6.097,-10.594 4.08,-2.412 10.008,-3.625 17.784,-3.625 5.994,0 10.634,0.876 13.89,2.629 3.261,1.749 4.886,4.239 4.886,7.469 0,2.701 -1.065,4.696 -3.189,5.983 -2.143,1.263 -6.428,2.252 -12.915,2.9 L 32.98,5.46 C 22.316,6.562 14.462,8.994 9.455,12.724 4.436,16.472 1.933,21.736 1.933,28.543 c 0,8.078 3.61,14.654 10.85,19.716 7.24,5.07 16.821,7.619 28.749,7.619 12.807,0 22.816,-2.384 30.073,-7.17 7.222,-4.776 10.858,-11.333 10.858,-19.614 v -0.659 h -20.45 c -0.476,4.11 -2.371,7.176 -5.736,9.218 -3.34,2.035 -8.149,3.057 -14.42,3.057 -5.777,0 -10.243,-0.823 -13.432,-2.478 -3.172,-1.647 -4.773,-3.957 -4.773,-6.969 0,-2.394 0.933,-4.164 2.798,-5.28 1.866,-1.108 6.476,-2.048 13.8,-2.882 l 15.263,-1.615 c 10.526,-1.13 18.259,-3.665 23.194,-7.578 4.929,-3.892 7.421,-9.408 7.421,-16.526 0,-9.125 -3.726,-16.087 -11.141,-20.849 -7.42,-4.747 -18.277,-7.137 -32.576,-7.137 -13.626,0 -24.115,2.519 -31.428,7.51 C 3.653,-18.104 0,-10.975 0,-1.71 Z"
                   style="fill:#211d1d;fill-opacity:1;fill-rule:nonzero;stroke:none"
                   id="path194" />
              </g>
              <g
                 transform="translate(1933.7246,411.4429)"
                 id="g200">
                <path
                   d="M 0,0 V -65.545 H -20.444 V 0 H -48.537 V 16.609 H 28.111 V 0 Z"
                   style="fill:#211d1d;fill-opacity:1;fill-rule:nonzero;stroke:none"
                   id="path198" />
              </g>
              <path
                 d="m 1970.713,428.052 h 20.606 v -82.154 h -20.606 z"
                 style="fill:#211d1d;fill-opacity:1;fill-rule:nonzero;stroke:none"
                 id="path202" />
              <g
                 transform="translate(2102.1094,377.7261)"
                 id="g206">
                <path
                   d="m 0,0 c -1.096,-10.291 -5.935,-18.532 -14.534,-24.717 -8.558,-6.178 -19.476,-9.277 -32.781,-9.277 -15.01,0 -26.956,3.918 -35.87,11.758 -8.919,7.824 -13.402,18.318 -13.402,31.462 0,13.144 4.483,23.633 13.402,31.464 8.914,7.873 20.86,11.798 35.87,11.798 13.113,0 23.946,-2.963 32.51,-8.871 8.552,-5.899 13.397,-13.651 14.474,-23.239 h -22.437 c -1.378,5.029 -4.128,8.842 -8.251,11.398 -4.122,2.538 -9.581,3.824 -16.296,3.824 -8.228,0 -14.721,-2.357 -19.47,-7.046 -4.76,-4.7 -7.138,-11.159 -7.138,-19.328 0,-8.152 2.372,-14.564 7.102,-19.242 4.749,-4.693 11.266,-7.039 19.506,-7.039 7.149,0 12.884,1.502 17.229,4.508 4.357,2.98 6.867,7.165 7.541,12.547 z"
                   style="fill:#211d1d;fill-opacity:1;fill-rule:nonzero;stroke:none"
                   id="path204" />
              </g>
              <g
                 transform="translate(2160.6787,360.6714)"
                 id="g210">
                <path
                   d="m 0,0 c 8.227,0 14.703,2.346 19.433,7.039 4.707,4.678 7.089,11.09 7.089,19.241 0,8.208 -2.382,14.664 -7.089,19.354 -4.73,4.678 -11.206,7.02 -19.433,7.02 -8.179,0 -14.685,-2.356 -19.451,-7.046 -4.748,-4.7 -7.138,-11.159 -7.138,-19.328 0,-8.151 2.371,-14.563 7.12,-19.241 C -14.721,2.346 -8.257,0 0,0 m -49.241,26.28 c 0,13.145 4.459,23.634 13.39,31.465 8.919,7.872 20.877,11.798 35.851,11.798 15.004,0 26.95,-3.926 35.851,-11.798 C 44.733,49.914 49.175,39.425 49.175,26.28 49.175,13.137 44.733,2.643 35.851,-5.182 26.95,-13.021 15.004,-16.939 0,-16.939 c -14.974,0 -26.932,3.918 -35.851,11.757 -8.931,7.825 -13.39,18.319 -13.39,31.462"
                   style="fill:#211d1d;fill-opacity:1;fill-rule:nonzero;stroke:none"
                   id="path208" />
              </g>
            </g>
          </g>
        </g>
        <g
           id="g216"
           transform="translate(684.2363,370.8687)">
          <path
             d="m 0,0 c 8.221,0 14.696,2.346 19.427,7.039 4.724,4.678 7.09,11.09 7.09,19.241 0,8.208 -2.366,14.664 -7.09,19.354 -4.731,4.678 -11.206,7.02 -19.427,7.02 -8.197,0 -14.696,-2.356 -19.451,-7.046 -4.742,-4.7 -7.132,-11.159 -7.132,-19.328 0,-8.151 2.365,-14.563 7.096,-19.241 C -14.727,2.346 -8.239,0 0,0 m -49.235,26.28 c 0,13.145 4.459,23.634 13.366,31.465 8.932,7.872 20.907,11.798 35.869,11.798 15.021,0 26.943,-3.926 35.833,-11.798 C 44.728,49.914 49.169,39.425 49.169,26.28 49.169,13.137 44.728,2.643 35.833,-5.182 26.943,-13.021 15.021,-16.939 0,-16.939 c -14.962,0 -26.937,3.918 -35.869,11.757 -8.907,7.825 -13.366,18.319 -13.366,31.462"
             style="fill:#facd09;fill-opacity:1;fill-rule:nonzero;stroke:none"
             id="path218" />
        </g>
        <g
           id="g220"
           transform="translate(768.1064,398.4312)">
          <path
             d="m 0,0 h 18.886 c 6.921,0 11.76,0.883 14.54,2.624 2.78,1.753 4.182,4.704 4.182,8.86 0,4.252 -1.198,7.236 -3.629,8.933 -2.383,1.717 -6.993,2.561 -13.751,2.561 H 0 Z m -20.588,-42.336 v 82.154 h 48.627 c 9.569,0 17.014,-2.487 22.37,-7.419 5.344,-4.945 8.029,-11.804 8.029,-20.573 0,-8.785 -2.685,-15.622 -8.029,-20.516 -5.356,-4.912 -12.801,-7.355 -22.37,-7.355 H 0 v -26.291 z"
             style="fill:#facd09;fill-opacity:1;fill-rule:nonzero;stroke:none"
             id="path222" />
        </g>
        <g
           id="g224"
           transform="translate(838.8691,356.0952)">
          <path
             d="M 0,0 V 82.154 H 72.923 V 65.545 H 20.576 V 51.666 H 67.2 V 34.945 H 20.576 V 17.282 H 72.923 V 0 Z"
             style="fill:#facd09;fill-opacity:1;fill-rule:nonzero;stroke:none"
             id="path226" />
        </g>
        <g
           id="g228"
           transform="translate(945.7656,403.1958)">
          <path
             d="m 0,0 h 23.278 c 6.139,0 10.466,0.753 12.957,2.259 2.504,1.484 3.744,3.954 3.744,7.39 0,3.343 -1.162,5.686 -3.491,7.014 -2.329,1.321 -7.016,1.984 -14.118,1.984 H 0 Z m -20.595,-47.101 v 82.155 h 50.469 c 10.947,0 19.03,-1.808 24.224,-5.407 5.188,-3.598 7.763,-9.146 7.763,-16.721 0,-4.79 -1.203,-9.038 -3.634,-12.748 -2.426,-3.72 -5.76,-6.376 -10.021,-8.011 3.635,-1.517 6.187,-3.396 7.644,-5.622 1.456,-2.245 2.329,-6.192 2.581,-11.869 0.012,-0.567 0.072,-1.311 0.108,-2.268 0.445,-10.192 1.89,-16.702 4.334,-19.509 h -23.11 c -0.554,0.898 -0.957,1.88 -1.258,2.944 -0.259,1.079 -0.398,2.226 -0.398,3.457 v 5.548 c 0,7.56 -0.968,12.489 -2.919,14.824 -1.931,2.346 -5.747,3.491 -11.417,3.491 H 23.278 0 v -30.264 z"
             style="fill:#facd09;fill-opacity:1;fill-rule:nonzero;stroke:none"
             id="path230" />
        </g>
        <g
           id="g232"
           transform="translate(1045.9512,390.0913)">
          <path
             d="M 0,0 H 21.732 L 10.664,25.371 Z M -36.645,-33.996 2.281,48.158 h 19.758 l 37.44,-82.154 H 36.615 l -7.511,17.38 H -7.041 l -7.385,-17.38 z"
             style="fill:#facd09;fill-opacity:1;fill-rule:nonzero;stroke:none"
             id="path234" />
        </g>
        <g
           id="g236"
           transform="translate(1132.2529,421.7456)">
          <path
             d="m 0,0 v -48.604 h 15.937 c 9.4,0 16.532,2.071 21.449,6.184 4.881,4.14 7.33,10.176 7.33,18.159 0,7.964 -2.438,13.981 -7.319,18.106 C 32.541,-2.046 25.385,0 15.937,0 Z m 15.503,16.504 c 8.865,0 15.533,-0.423 19.957,-1.257 4.441,-0.836 8.371,-2.216 11.855,-4.149 6.067,-3.281 10.767,-8.021 14.047,-14.202 3.298,-6.191 4.959,-13.345 4.959,-21.493 0,-8.115 -1.661,-15.258 -4.959,-21.429 -3.28,-6.199 -7.98,-10.963 -14.047,-14.28 -3.484,-1.923 -7.414,-3.295 -11.855,-4.11 -4.424,-0.829 -11.092,-1.234 -19.957,-1.234 h -37.09 v 82.154 z"
             style="fill:#facd09;fill-opacity:1;fill-rule:nonzero;stroke:none"
             id="path238" />
        </g>
        <g
           id="g240"
           transform="translate(1257.252,370.8687)">
          <path
             d="m 0,0 c 8.233,0 14.69,2.346 19.415,7.039 4.731,4.678 7.09,11.09 7.09,19.241 0,8.208 -2.359,14.664 -7.09,19.354 -4.725,4.678 -11.182,7.02 -19.415,7.02 -8.202,0 -14.696,-2.356 -19.451,-7.046 -4.754,-4.7 -7.125,-11.159 -7.125,-19.328 0,-8.151 2.359,-14.563 7.096,-19.241 C -14.757,2.346 -8.257,0 0,0 m -49.235,26.28 c 0,13.145 4.435,23.634 13.373,31.465 8.943,7.872 20.883,11.798 35.862,11.798 15.004,0 26.968,-3.926 35.839,-11.798 C 44.704,49.914 49.157,39.425 49.157,26.28 49.157,13.137 44.704,2.643 35.839,-5.182 26.968,-13.021 15.004,-16.939 0,-16.939 c -14.979,0 -26.919,3.918 -35.862,11.757 -8.938,7.825 -13.373,18.319 -13.373,31.462"
             style="fill:#facd09;fill-opacity:1;fill-rule:nonzero;stroke:none"
             id="path242" />
        </g>
        <g
           id="g244"
           transform="translate(1341.1289,403.1958)">
          <path
             d="m 0,0 h 23.267 c 6.144,0 10.465,0.753 12.974,2.259 2.492,1.484 3.732,3.954 3.732,7.39 0,3.343 -1.15,5.686 -3.485,7.014 -2.329,1.321 -7.029,1.984 -14.112,1.984 H 0 Z m -20.601,-47.101 v 82.155 h 50.475 c 10.966,0 19.048,-1.808 24.206,-5.407 5.176,-3.598 7.781,-9.146 7.781,-16.721 0,-4.79 -1.21,-9.038 -3.623,-12.748 -2.443,-3.72 -5.771,-6.376 -10.038,-8.011 3.629,-1.517 6.169,-3.396 7.643,-5.622 1.474,-2.245 2.323,-6.192 2.576,-11.869 0.036,-0.567 0.084,-1.311 0.12,-2.268 0.434,-10.192 1.884,-16.702 4.315,-19.509 H 39.763 c -0.56,0.898 -0.963,1.88 -1.252,2.944 -0.271,1.079 -0.434,2.226 -0.434,3.457 v 5.548 c 0,7.56 -0.963,12.489 -2.9,14.824 -1.933,2.346 -5.742,3.491 -11.399,3.491 H 23.267 0 v -30.264 z"
             style="fill:#facd09;fill-opacity:1;fill-rule:nonzero;stroke:none"
             id="path246" />
        </g>
        <g
           id="g248"
           transform="translate(1459.4053,356.0952)">
          <path
             d="M 0,0 V 82.154 H 20.631 V 17.282 H 62.873 V 0 Z"
             style="fill:#facd09;fill-opacity:1;fill-rule:nonzero;stroke:none"
             id="path250" />
        </g>
        <g
           id="g252"
           transform="translate(1575.5996,370.8687)">
          <path
             d="m 0,0 c 8.228,0 14.697,2.346 19.415,7.039 4.731,4.678 7.06,11.09 7.06,19.241 0,8.208 -2.329,14.664 -7.06,19.354 -4.718,4.678 -11.187,7.02 -19.415,7.02 -8.221,0 -14.69,-2.356 -19.475,-7.046 -4.76,-4.7 -7.126,-11.159 -7.126,-19.328 0,-8.151 2.36,-14.563 7.114,-19.241 C -14.738,2.346 -8.257,0 0,0 m -49.266,26.28 c 0,13.145 4.472,23.634 13.379,31.465 8.919,7.872 20.89,11.798 35.887,11.798 14.992,0 26.956,-3.926 35.821,-11.798 C 44.722,49.914 49.14,39.425 49.14,26.28 49.14,13.137 44.722,2.643 35.821,-5.182 26.956,-13.021 14.992,-16.939 0,-16.939 c -14.997,0 -26.968,3.918 -35.887,11.757 -8.907,7.825 -13.379,18.319 -13.379,31.462"
             style="fill:#facd09;fill-opacity:1;fill-rule:nonzero;stroke:none"
             id="path254" />
        </g>
        <g
           id="g256"
           transform="translate(1712.9063,365.314)">
          <path
             d="m 0,0 c -3.954,-3.81 -8.426,-6.659 -13.433,-8.538 -5.019,-1.9 -10.671,-2.847 -16.96,-2.847 -6.348,0 -12.336,0.906 -17.988,2.672 -5.681,1.789 -10.61,4.299 -14.793,7.542 -5.133,4.093 -8.972,8.84 -11.513,14.261 -2.54,5.434 -3.839,11.662 -3.839,18.745 0,13.144 4.502,23.634 13.409,31.465 8.936,7.872 20.888,11.798 35.887,11.798 12.65,0 23.206,-2.822 31.649,-8.474 8.45,-5.656 13.27,-13.034 14.492,-22.134 H -5.471 c -1.889,4.595 -4.808,8.034 -8.738,10.305 -3.966,2.277 -8.967,3.414 -15.021,3.414 -8.228,0 -14.697,-2.356 -19.482,-7.046 -4.748,-4.7 -7.125,-11.159 -7.125,-19.328 0,-8.151 2.371,-14.564 7.102,-19.241 4.759,-4.694 11.241,-7.039 19.505,-7.039 5.626,0 10.568,1.213 14.816,3.617 4.262,2.407 7.343,5.724 9.268,9.939 H -23.79 V 35.478 H 16.683 V -9.219 H 1.138 Z"
             style="fill:#facd09;fill-opacity:1;fill-rule:nonzero;stroke:none"
             id="path258" />
        </g>
        <path
           d="m 1747.813,438.25 h 20.601 v -82.154 h -20.601 z"
           style="fill:#facd09;fill-opacity:1;fill-rule:nonzero;stroke:none"
           id="path260" />
        <g
           id="g262"
           transform="translate(1783.6445,384.5337)">
          <path
             d="m 0,0 h 21.034 v -0.768 c 0,-4.641 2.023,-8.155 6.097,-10.594 4.08,-2.412 10.008,-3.625 17.784,-3.625 5.994,0 10.634,0.876 13.89,2.629 3.261,1.749 4.886,4.239 4.886,7.469 0,2.701 -1.065,4.696 -3.189,5.983 -2.143,1.263 -6.428,2.252 -12.915,2.9 L 32.98,5.46 C 22.316,6.562 14.462,8.994 9.455,12.724 4.436,16.472 1.933,21.736 1.933,28.543 c 0,8.078 3.61,14.654 10.85,19.716 7.24,5.07 16.821,7.619 28.749,7.619 12.807,0 22.816,-2.384 30.073,-7.17 7.222,-4.776 10.858,-11.333 10.858,-19.614 v -0.659 h -20.45 c -0.476,4.11 -2.371,7.176 -5.736,9.218 -3.34,2.035 -8.149,3.057 -14.42,3.057 -5.777,0 -10.243,-0.823 -13.432,-2.478 -3.172,-1.647 -4.773,-3.957 -4.773,-6.969 0,-2.394 0.933,-4.164 2.798,-5.28 1.866,-1.108 6.476,-2.048 13.8,-2.882 l 15.263,-1.615 c 10.526,-1.13 18.259,-3.665 23.194,-7.578 4.929,-3.892 7.421,-9.408 7.421,-16.526 0,-9.125 -3.726,-16.087 -11.141,-20.849 -7.42,-4.747 -18.277,-7.137 -32.576,-7.137 -13.626,0 -24.115,2.519 -31.428,7.51 C 3.653,-18.104 0,-10.975 0,-1.71 Z"
             style="fill:#facd09;fill-opacity:1;fill-rule:nonzero;stroke:none"
             id="path264" />
        </g>
        <g
           id="g266"
           transform="translate(1923.5273,421.6402)">
          <path
             d="M 0,0 V -65.545 H -20.444 V 0 H -48.537 V 16.609 H 28.111 V 0 Z"
             style="fill:#facd09;fill-opacity:1;fill-rule:nonzero;stroke:none"
             id="path268"
             inkscape:label="path268" />
        </g>
        <path
           d="m 1960.516,438.25 h 20.606 v -82.154 h -20.606 z"
           style="fill:#facd09;fill-opacity:1;fill-rule:nonzero;stroke:none"
           id="path270" />
        <g
           id="g272"
           transform="translate(2091.9121,387.9234)">
          <path
             d="m 0,0 c -1.096,-10.291 -5.935,-18.532 -14.534,-24.717 -8.558,-6.178 -19.476,-9.277 -32.781,-9.277 -15.01,0 -26.956,3.918 -35.87,11.758 -8.919,7.824 -13.402,18.318 -13.402,31.462 0,13.144 4.483,23.633 13.402,31.464 8.914,7.873 20.86,11.798 35.87,11.798 13.113,0 23.946,-2.963 32.51,-8.871 8.552,-5.899 13.397,-13.651 14.474,-23.239 h -22.437 c -1.378,5.029 -4.128,8.842 -8.251,11.398 -4.122,2.538 -9.581,3.824 -16.296,3.824 -8.228,0 -14.721,-2.357 -19.47,-7.046 -4.76,-4.7 -7.138,-11.159 -7.138,-19.328 0,-8.152 2.372,-14.564 7.102,-19.242 4.749,-4.693 11.266,-7.039 19.506,-7.039 7.149,0 12.884,1.502 17.229,4.508 4.357,2.98 6.867,7.165 7.541,12.547 z"
             style="fill:#facd09;fill-opacity:1;fill-rule:nonzero;stroke:none"
             id="path274" />
        </g>
        <g
           id="g276"
           transform="translate(2150.4814,370.8687)">
          <path
             d="m 0,0 c 8.227,0 14.703,2.346 19.433,7.039 4.707,4.678 7.089,11.09 7.089,19.241 0,8.208 -2.382,14.664 -7.089,19.354 -4.73,4.678 -11.206,7.02 -19.433,7.02 -8.179,0 -14.685,-2.356 -19.451,-7.046 -4.748,-4.7 -7.138,-11.159 -7.138,-19.328 0,-8.151 2.371,-14.563 7.12,-19.241 C -14.721,2.346 -8.257,0 0,0 m -49.241,26.28 c 0,13.145 4.459,23.634 13.39,31.465 8.919,7.872 20.877,11.798 35.851,11.798 15.004,0 26.95,-3.926 35.851,-11.798 C 44.733,49.914 49.175,39.425 49.175,26.28 49.175,13.137 44.733,2.643 35.851,-5.182 26.95,-13.021 15.004,-16.939 0,-16.939 c -14.974,0 -26.932,3.918 -35.851,11.757 -8.931,7.825 -13.39,18.319 -13.39,31.462"
             style="fill:#facd09;fill-opacity:1;fill-rule:nonzero;stroke:none"
             id="path278" />
        </g>
        <g
           id="g280">
          <g
             id="g282" />
          <g
             id="g294">
            <g
               clip-path="url(#clipPath286)"
               opacity="0.75"
               id="g292">
              <g
                 transform="translate(1752.002,440.4951)"
                 id="g290">
                <path
                   d="M 0,0 20.6,19.089 V 0 Z"
                   style="fill:#211d1d;fill-opacity:1;fill-rule:nonzero;stroke:none"
                   id="path288" />
              </g>
            </g>
          </g>
        </g>
        <g
           id="g296"
           transform="translate(1747.8125,444.6841)">
          <path
             d="M 0,0 20.601,19.089 V 0 Z"
             style="fill:#facd09;fill-opacity:1;fill-rule:nonzero;stroke:none"
             id="path298" />
        </g>
        <path
           style="display:inline;fill:#001689;stroke-width:0.75;fill-opacity:1"
           d="m 1159.8322,917.49098 -4.1289,-6.14635 13.1607,-9.00839 0.068,-113.07668 -81.3489,-0.19905 v 11.14731 l -7.4979,0.0664 0.1991,-18.5125 h 95.8801 l 0.1328,124.54469 z"
           id="path1" />
      </g>
    </g>
  </g>
</svg>
